<?xml version="1.0" encoding="UTF-8"?>
<svg id="Layer_2" xmlns="http://www.w3.org/2000/svg" version="1.1" viewBox="0 0 3263.84 442.79">
  <!-- Generator: Adobe Illustrator 30.2.1, SVG Export Plug-In . SVG Version: 2.1.1 Build 1)  -->
  <path d="M280.1,215.39h-24c-12-54.6-53.4-87-110.4-87-70.2,0-118.8,54.6-118.8,146.4,0,100.8,54.6,146.4,118.2,146.4,60,0,102.6-36.6,112.2-86.4h24.6c-13.8,65.4-64.8,108-137.4,108C52.7,442.79,2.3,374.39,2.3,275.39S54.5,106.79,147.5,106.79c72,0,121.2,48,132.6,108.6Z"/>
  <path d="M465.5,134.99h-11.4c-75,0-94.2,62.4-94.2,151.8v148.2h-22.8V112.19h21.6v69.6c12.6-40.8,45.6-71.4,98.4-71.4h8.4v24.6Z"/>
  <path d="M479.89,274.19c0-102.6,59.4-167.4,148.2-167.4s145.2,69.6,142.2,169.2h-265.8c0,97.8,57,145.2,126.6,145.2,57.6,0,96.6-27.6,110.4-81h24c-13.8,64.8-63.6,102.6-135.6,102.6-93,0-150-68.4-150-168.6ZM505.09,254.99h240c0-66-43.8-127.2-117.6-127.2s-117,47.4-122.4,127.2Z"/>
  <path d="M1042.68,372.59c-21,47.4-64.8,70.2-124.8,70.2s-108-31.2-108-85.8c0-76.8,76.2-96,231.6-115.2v-18.6c0-84-48-97.2-97.8-97.2-64.8,0-94.2,36.6-99,79.8h-25.2c6.6-57.6,52.8-101.4,124.8-101.4s120.6,27,120.6,118.8v25.2c0,17.4-.6,36-.6,52.8v22.8c0,40.8,1.2,74.4,3.6,111h-22.8l-2.4-62.4ZM1042.68,263.39c-156,17.4-207.6,38.4-207.6,92.4,0,40.8,38.4,65.4,88.2,65.4,60,0,119.4-31.2,119.4-125.4v-32.4Z"/>
  <path d="M1156.07,35.99h22.8v76.2h67.2v20.4h-67.2v220.8c0,50.4,1.8,60,52.2,60h15v21.6h-22.8c-55.8,0-67.2-12-67.2-73.2v-229.2h-57v-20.4h57V35.99Z"/>
  <path d="M1321.07-.01v57.6h-23.4V-.01h23.4ZM1321.07,112.19v322.8h-23.4V112.19h23.4Z"/>
  <path d="M1497.46,403.79l111-291.6h26.4l-126,322.8h-23.4l-127.2-322.8h26.4l112.8,291.6Z"/>
  <path d="M1642.66,274.19c0-102.6,59.4-167.4,148.2-167.4s145.2,69.6,142.2,169.2h-265.8c0,97.8,57,145.2,126.6,145.2,57.6,0,96.6-27.6,110.4-81h24c-13.8,64.8-63.6,102.6-135.6,102.6-93,0-150-68.4-150-168.6ZM1667.86,254.99h240c0-66-43.8-127.2-117.6-127.2s-117,47.4-122.4,127.2Z"/>
  <path d="M2137.65,35.99h22.8v76.2h67.2v20.4h-67.2v220.8c0,50.4,1.8,60,52.2,60h15v21.6h-22.8c-55.8,0-67.2-12-67.2-73.2v-229.2h-57v-20.4h57V35.99Z"/>
  <path d="M2401.05,106.79c79.8,0,144.6,54.6,144.6,168s-64.8,168-144.6,168-144-54-144-168,64.8-168,144-168ZM2401.05,421.19c69,0,119.4-48,119.4-146.4s-50.4-146.4-119.4-146.4-119.4,48-119.4,146.4,50.4,146.4,119.4,146.4Z"/>
  <path d="M2728.65,106.79c79.8,0,144.6,54.6,144.6,168s-64.8,168-144.6,168-144-54-144-168,64.8-168,144-168ZM2728.65,421.19c69,0,119.4-48,119.4-146.4s-50.4-146.4-119.4-146.4-119.4,48-119.4,146.4,50.4,146.4,119.4,146.4Z"/>
  <path d="M2957.85,434.99h-23.4V-.01h23.4v435Z"/>
  <path d="M3242.85,195.59c-12-48.6-51-67.2-101.4-67.2-40.8,0-92.4,18-92.4,60.6,0,36,27.6,53.4,68.4,62.4l47.4,9c57.6,11.4,109.8,31.2,109.8,88.8,0,61.8-58.2,93.6-126,93.6-73.8,0-120-37.8-131.4-102h24.6c11.4,50.4,46.8,80.4,109.8,80.4,45,0,98.4-19.2,98.4-68.4,0-43.8-37.8-60-88.2-69.6l-49.8-9.6c-52.2-10.2-87-36-87-83.4,0-50.4,55.2-83.4,119.4-83.4,67.8,0,112.2,33,122.4,88.8h-24Z"/>
</svg>